{"title":"Hard Candy 2005 DVDrip English Klam","uid":6223304,"size":1634535627,"categoryP":"video","categoryS":"movies","magnet":"?xt=urn:btih:4484e2a44874cd71880f8d2ef0367908ef3f2b53&amp;dn=Hard+Candy+2005+DVDrip+English+Klam&amp;tr=udp%3A%2F%2Ftracker.openbittorrent.com%3A80&amp;tr=udp%3A%2F%2Fopen.demonii.com%3A1337&amp;tr=udp%3A%2F%2Ftracker.coppersurfer.tk%3A6969&amp;tr=udp%3A%2F%2Fexodus.desync.com%3A6969","seeders":0,"leechers":2,"uploader":"Klambake","files":-1,"time":1299419928,"description":"With: Patrick Wilson, Ellen Page and Sandra Oh\n\nAfter three weeks of chatting with the thirty-two year old photographer Jeff Kohlver over the Internet, fourteen year old Hayley Stark meets him in the Nighthawks coffee shop. Hayley flirts with him in spite of the age difference and proposes to go to his house. Once there, she prepares a screwdriver for them and Jeff passes out. When he awakes, he is tied up to a chair, and Hayley accuses him of pedophilia. Jeff denies the accusation, and Hayley begins to torture him in a cat and mouse game.\n\nGeneral:\n\nComplete name                    : Hard Candy\\Hard Candy.avi\nFormat                           : AVI\nFormat/Info                      : Audio Video Interleave\nFile size                        : 1.52 GiB\nDuration                         : 1h 44mn\nOverall bit rate                 : 2 092 Kbps\n\nVideo:\n\nFormat                           : MPEG-4 Visual\nFormat profile                   : Simple@L3\nFormat settings, BVOP            : No\nFormat settings, QPel            : No\nFormat settings, GMC             : No warppoints\nFormat settings, Matrix          : Default (H.263)\nCodec ID                         : XVID\nCodec ID/Hint                    : XviD\nDuration                         : 1h 44mn\nBit rate                         : 1 633 Kbps\nWidth                            : 704 pixels\nHeight                           : 396 pixels\nDisplay aspect ratio             : 16:9\nFrame rate                       : 23.976 fps\nColor space                      : YUV\nChroma subsampling               : 4:2:0\nBit depth                        : 8 bits\nScan type                        : Progressive\nBits/(Pixel*Frame)               : 0.244\nStream size                      : 1.19 GiB (78%)\nWriting library                  : XviD 1.1.2 (UTC 2006-11-01)\n\nAudio:\n\nFormat                           : AC-3\nFormat/Info                      : Audio Coding 3\nMode extension                   : CM (complete main)\nCodec ID                         : 2000\nDuration                         : 1h 44mn\nBit rate mode                    : Constant\nBit rate                         : 448 Kbps\nChannel(s)                       : 6 channels\nChannel positions                : Front: L C R, Side: L R, LFE\nSampling rate                    : 48.0 KHz\nBit depth                        : 16 bits\nStream size                      : 334 MiB (21%)\nAlignment                        : Aligned on interleaves\nInterleave, duration             : 32 ms (0.77 video frame)\n\n\n","torrent":{"xt":"urn:btih:4484e2a44874cd71880f8d2ef0367908ef3f2b53","amp;dn":"Hard+Candy+2005+DVDrip+English+Klam","amp;tr":["udp%3A%2F%2Ftracker.openbittorrent.com%3A80","udp%3A%2F%2Fopen.demonii.com%3A1337","udp%3A%2F%2Ftracker.coppersurfer.tk%3A6969","udp%3A%2F%2Fexodus.desync.com%3A6969"],"infoHash":"4484e2a44874cd71880f8d2ef0367908ef3f2b53","infoHashBuffer":{"type":"Buffer","data":[68,132,226,164,72,116,205,113,136,15,141,46,240,54,121,8,239,63,43,83]},"announce":[],"urlList":[]}}